# xmcd
#
# Track frame offsets: 
#        150
#        9840
#        18857
#        28285
#        38937
#        56782
#        70600
#        80385
#        91275
#        99730
#        115705
#        127167
#        144720
#        169742
#        180677
#        198265
#
# Disc length: 2807 seconds
#
# Revision: 0
# Processed by: cddbd v1.5.1PL0 Copyright (c) Steve Scherf et al.
# Submitted via: ExactAudioCopy v0.95a5
#
DISCID=d40af510
DTITLE=Johnny Cash - God Theme
DYEAR=2000
DGENRE=Country
TTITLE0=What on Earth Will You Do (for Heaven's Sake)
TTITLE1=My God Is Real
TTITLE2=It Was Jesus
TTITLE3=Why Me Lord (Mono)
TTITLE4=The Greatest Cowboy of Them All
TTITLE5=Redemption (Mono)
TTITLE6=The Great Speckled Bird
TTITLE7=The Old Account
TTITLE8=Sweet Chariot
TTITLE9=When He Comes
TTITLE10=The Kneeling Drunkards Plea
TTITLE11=Were You There (When They Crucified My Lord)
TTITLE12=Man In White
TTITLE13=Belshazzar (Mono)
TTITLE14=Oh, Bury Me Not (Introduction A Cowboy's Prayer) (Mono)
TTITLE15=Oh Come Angel Band
EXTD=
EXTT0=
EXTT1=
EXTT2=
EXTT3=
EXTT4=
EXTT5=
EXTT6=
EXTT7=
EXTT8=
EXTT9=
EXTT10=
EXTT11=
EXTT12=
EXTT13=
EXTT14=
EXTT15=
PLAYORDER=
